<?xml version="1.0" encoding="UTF-8" standalone="no"?>
<svg
   xmlns:dc="http://purl.org/dc/elements/1.1/"
   xmlns:cc="http://creativecommons.org/ns#"
   xmlns:rdf="http://www.w3.org/1999/02/22-rdf-syntax-ns#"
   xmlns:svg="http://www.w3.org/2000/svg"
   xmlns="http://www.w3.org/2000/svg"
   xmlns:sodipodi="http://sodipodi.sourceforge.net/DTD/sodipodi-0.dtd"
   xmlns:inkscape="http://www.inkscape.org/namespaces/inkscape"
   height="682pt"
   viewBox="-21 -41 682.66535 682"
   width="682pt"
   version="1.1"
   id="svg3771"
   sodipodi:docname="celtic-magic-button.svg"
   inkscape:version="0.92.4 5da689c313, 2019-01-14">
  <metadata
     id="metadata3777">
    <rdf:RDF>
      <cc:Work
         rdf:about="">
        <dc:format>image/svg+xml</dc:format>
        <dc:type
           rdf:resource="http://purl.org/dc/dcmitype/StillImage" />
        <dc:title />
      </cc:Work>
    </rdf:RDF>
  </metadata>
  <defs
     id="defs3775" />
  <sodipodi:namedview
     pagecolor="#ffffff"
     bordercolor="#666666"
     borderopacity="1"
     objecttolerance="10"
     gridtolerance="10"
     guidetolerance="10"
     inkscape:pageopacity="0"
     inkscape:pageshadow="2"
     inkscape:window-width="1920"
     inkscape:window-height="985"
     id="namedview3773"
     showgrid="false"
     inkscape:zoom="0.8478739"
     inkscape:cx="181.63078"
     inkscape:cy="454.66667"
     inkscape:window-x="0"
     inkscape:window-y="23"
     inkscape:window-maximized="1"
     inkscape:current-layer="svg3771" />
  <path
     d="m206.503906 459.316406c32.582032-6.796875 63.203125-22.230468 88.070313-44.992187-5.972657-7.773438-11.460938-15.964844-16.421875-24.5625-51.90625-89.90625-33.480469-205.203125 41.863281-274.613281 21.859375 20.054687 39.210937 43.988281 51.375 70.539062 39.652344 5.675781 77.710937 17.914062 112.902344 36.160156-6.398438-35.351562-18.699219-69.570312-36.464844-100.996094-27.988281-49.492187-68.953125-90.761718-118.453125-119.339843-5.800781-3.351563-12.949219-3.351563-18.75 0-74.023438 42.734375-126.972656 111.742187-149.097656 194.304687-22.125 82.566406-10.769532 168.800782 31.96875 242.824219 4.085937 7.070313 8.425781 13.96875 13.007812 20.675781zm0 0"
     id="path3765"
     style="opacity:1;fill:#ffffff;fill-opacity:1" />
  <path
     d="m546.273438 313.25c-60.445313-60.441406-140.800782-93.726562-226.273438-93.726562-8.167969 0-16.3125.3125-24.414062.921874-10.40625 31.617188-12.347657 65.855469-5.070313 98.773438 9.71875-1.28125 19.550781-1.941406 29.484375-1.941406 103.8125 0 194.445312 73.597656 216.886719 173.554687-21.351563 6.703125-43.503907 10.09375-66.046875 10.09375-6.929688 0-13.8125-.332031-20.648438-.964843-24.757812 31.550781-54.410156 58.425781-87.84375 79.796874 34.707032 12.464844 71.464844 18.929688 108.554688 18.929688h.015625c55.839843 0 111.074219-14.84375 159.707031-42.925781 5.804688-3.347657 9.375-9.535157 9.375-16.234375 0-85.476563-33.289062-165.835938-93.726562-226.277344zm0 0"
     id="path3767"
     style="fill:#ffffff;fill-opacity:1" />
  <path
     d="m446.503906 438.632812c4.085938-7.074218 7.890625-14.28125 11.410156-21.605468-22.175781-24.8125-50.855468-43.617188-83.007812-53.769532-3.746094 9.054688-8.09375 17.90625-13.054688 26.5-39.585937 68.570313-113.425781 111.160157-192.695312 111.160157-22.550781 0-44.703125-3.386719-66.066406-10.097657 6.4375-28.957031 18.492187-55.960937 35.40625-79.765624-14.90625-37.167969-23.339844-76.222657-25.132813-115.808594-27.410156 23.210937-50.90625 50.933594-69.234375 82.027344-28.871094 48.984374-44.128906 105.089843-44.128906 162.253906 0 6.699218 3.574219 12.890625 9.375 16.234375 48.632812 28.078125 103.863281 42.921875 159.714844 42.921875h.015625c55.21875 0 109.828125-14.355469 157.914062-41.515625 49.558594-27.988281 90.875-68.976563 119.484375-118.535157zm0 0"
     id="path3769"
     style="fill:#ffffff;fill-opacity:1" />
</svg>
